# xmcd
#
# Track frame offsets: 
#        150
#        22502
#        42810
#        65747
#        87145
#        104217
#        122317
#        144735
#        172342
#        191397
#        212382
#        245300
#        258315
#        270578
#        283343
#
# Disc length: 3952 seconds
#
# Revision: 0
# Processed by: cddbd v1.5.2PL0 Copyright (c) Steve Scherf et al.
# Submitted via: ExactAudioCopy v0.99pb5
#
DISCID=d50f6e0f
DTITLE=Jesse Fortune with Dave Specter and The Blueberds - Fortune Tel
DTITLE=lin' Man
DYEAR=1993
DGENRE=Blues
TTITLE0=Dark Is The Night
TTITLE1=Fortune Tellin' Man
TTITLE2=Get Mad At My Money
TTITLE3=Sandu
TTITLE4=Too Many Cooks
TTITLE5=Lovingest Woman In Town
TTITLE6=Specter's Walk
TTITLE7=Gambler's Blues
TTITLE8=Be Careful With The Fool
TTITLE9=Ain't About Money
TTITLE10=Losing Hand
TTITLE11=Too Many Cooks [bonus track]
TTITLE12=Good Things [bonus track]
TTITLE13=God's Gift To Man [bonus track]
TTITLE14=Heavy Heart Beat [bonus track]
EXTD=
EXTT0=
EXTT1=
EXTT2=
EXTT3=
EXTT4=
EXTT5=
EXTT6=
EXTT7=
EXTT8=
EXTT9=
EXTT10=
EXTT11=
EXTT12=
EXTT13=
EXTT14=
PLAYORDER=
